ffmpeg started on 2025-02-08 at 04:33:06
Report written to "videos/dist/h264_qsv_min_qp_2/1c21a0b93665.log"
Log level: 40
Command line:
ffmpeg -progress - -nostats -y -threads 4 -hwaccel_output_format qsv -hwaccel qsv -c:v mpeg2_qsv -i videos/dist/h264_qsv_min_qp_2/base.mkv -global_quality 25 -look_ahead 1 -bf 16 -refs 9 -min_qp_i 30 -min_qp_p 25 -min_qp_b 28 -c:v h264_qsv -preset:v veryslow videos/dist/h264_qsv_min_qp_2/1c21a0b93665.mkv
ffmpeg version 7.1 Copyright (c) 2000-2024 the FFmpeg developers
  built with gcc 13 (Ubuntu 13.3.0-6ubuntu2~24.04)
  configuration: --enable-avisynth --enable-libaom --enable-libaribb24 --enable-libass --enable-libdav1d --enable-libfreetype --enable-libmp3lame --enable-libopus --enable-libsvtav1 --enable-libvmaf --enable-libvpl --enable-libvpx --enable-libx264 --enable-libx265 --enable-vaapi --enable-gpl --enable-nonfree --enable-version3 --disable-debug --disable-doc --disable-ffplay --disable-shared --enable-small --enable-static --enable-stripping --extra-libs='-lpthread -lm' --pkg-config-flags=--static --extra-cflags=-fopenmp --extra-ldflags='-fopenmp -Wl,--allow-multiple-definition -Wl,-z,stack-size=2097152' --toolchain=hardened
  libavutil      59. 39.100 / 59. 39.100
  libavcodec     61. 19.100 / 61. 19.100
  libavformat    61.  7.100 / 61.  7.100
  libavdevice    61.  3.100 / 61.  3.100
  libavfilter    10.  4.100 / 10.  4.100
  libswscale      8.  3.100 /  8.  3.100
  libswresample   5.  3.100 /  5.  3.100
  libpostproc    58.  3.100 / 58.  3.100
Input #0, matroska,webm, from 'videos/dist/h264_qsv_min_qp_2/base.mkv':
  Metadata:
    ENCODER         : Lavf61.7.100
  Duration: 00:02:00.02, start: 0.000000, bitrate: 17503 kb/s
  Stream #0:0: Video: mpeg2video, yuv420p(tv, bt709/unknown/unknown, progressive), 1920x1080 [SAR 1:1 DAR 16:9], 29.97 fps, 29.97 tbr, 1k tbn
      Metadata:
        DURATION        : 00:02:00.020000000
      Side data:
        cpb: bitrate max/min/avg: 24000000/0/0 buffer size: 9781248 vbv_delay: N/A
[out#0/matroska @ 0x5cd73351ac80] No explicit maps, mapping streams automatically...
[vost#0:0/h264_qsv @ 0x5cd733515640] Created video stream from input stream 0:0
[AVHWDeviceContext @ 0x5cd733518fc0] Trying to use DRM render node for device 0, with matching vendor id (0x8086).
[AVHWDeviceContext @ 0x5cd733518fc0] libva: VA-API version 1.22.0
[AVHWDeviceContext @ 0x5cd733518fc0] libva: User requested driver 'iHD'
[AVHWDeviceContext @ 0x5cd733518fc0] libva: Trying to open /opt/ffmpeg/lib/dri/iHD_drv_video.so
[AVHWDeviceContext @ 0x5cd733518fc0] libva: Found init function __vaDriverInit_1_22
[AVHWDeviceContext @ 0x5cd733518fc0] libva: va_openDriver() returns 0
[AVHWDeviceContext @ 0x5cd733518fc0] Initialised VAAPI connection: version 1.22
[AVHWDeviceContext @ 0x5cd733518fc0] VAAPI driver: Intel iHD driver for Intel(R) Gen Graphics - 24.3.4 (081fc57).
[AVHWDeviceContext @ 0x5cd733518fc0] Driver not found in known nonstandard list, using standard behaviour.
[AVHWDeviceContext @ 0x5cd73351adc0] Use Intel(R) oneVPL to create MFX session, API version is 2.14, the required implementation version is 1.3
[AVHWDeviceContext @ 0x5cd73351adc0] Initialize MFX session: implementation version is 2.13
Stream mapping:
  Stream #0:0 -> #0:0 (mpeg2video (mpeg2_qsv) -> h264 (h264_qsv))
[vost#0:0/h264_qsv @ 0x5cd733515640] Starting thread...
[vf#0:0 @ 0x5cd733516680] Starting thread...
[vist#0:0/mpeg2video @ 0x5cd73351a8c0] [dec:mpeg2_qsv @ 0x5cd733518040] Starting thread...
[in#0/matroska,webm @ 0x5cd733509300] Starting thread...
Press [q] to stop, [?] for help
[AVHWDeviceContext @ 0x7287040028c0] VAAPI driver: Intel iHD driver for Intel(R) Gen Graphics - 24.3.4 (081fc57).
[AVHWDeviceContext @ 0x7287040028c0] Driver not found in known nonstandard list, using standard behaviour.
[mpeg2_qsv @ 0x5cd733518880] Decoder: output is video memory surface
[mpeg2_qsv @ 0x5cd733518880] Use Intel(R) oneVPL to create MFX session with the specified MFX loader
[AVHWDeviceContext @ 0x728704005a80] VAAPI driver: Intel iHD driver for Intel(R) Gen Graphics - 24.3.4 (081fc57).
[AVHWDeviceContext @ 0x728704005a80] Driver not found in known nonstandard list, using standard behaviour.
[mpeg2_qsv @ 0x5cd733518880] Decoder: output is video memory surface
[mpeg2_qsv @ 0x5cd733518880] Use Intel(R) oneVPL to create MFX session with the specified MFX loader
[graph -1 input from stream 0:0 @ 0x7286fc002c40] w:1920 h:1080 pixfmt:qsv tb:1/1000 fr:30000/1001 sar:1/1 csp:bt709 range:tv
[graph -1 input from stream 0:0 @ 0x7286fc002c40] video frame properties congruent with link at pts_time: 0
[h264_qsv @ 0x5cd733514380] Using input frames context (format qsv) with h264_qsv encoder.
[h264_qsv @ 0x5cd733514380] Encoder: input is video memory surface
[h264_qsv @ 0x5cd733514380] Use Intel(R) oneVPL to create MFX session with the specified MFX loader
[h264_qsv @ 0x5cd733514380] Using the intelligent constant quality with lookahead (LA_ICQ) ratecontrol method
[h264_qsv @ 0x5cd733514380] profile: avc high; level: 50
[h264_qsv @ 0x5cd733514380] GopPicSize: 256; GopRefDist: 17; GopOptFlag: closed; IdrInterval: 0
[h264_qsv @ 0x5cd733514380] TargetUsage: 1; RateControlMethod: ICQ
[h264_qsv @ 0x5cd733514380] ICQQuality: 25
[h264_qsv @ 0x5cd733514380] NumSlice: 1; NumRefFrame: 9
[h264_qsv @ 0x5cd733514380] RateDistortionOpt: OFF
[h264_qsv @ 0x5cd733514380] RecoveryPointSEI: OFF
[h264_qsv @ 0x5cd733514380] VDENC: ON
[h264_qsv @ 0x5cd733514380] Entropy coding: CABAC; MaxDecFrameBuffering: 9
[h264_qsv @ 0x5cd733514380] NalHrdConformance: OFF; SingleSeiNalUnit: ON; VuiVclHrdParameters: OFF VuiNalHrdParameters: OFF
[h264_qsv @ 0x5cd733514380] FrameRateExtD: 1001; FrameRateExtN: 30000 
[h264_qsv @ 0x5cd733514380] IntRefType: 0; IntRefCycleSize: 0; IntRefQPDelta: 0
[h264_qsv @ 0x5cd733514380] MaxFrameSize: 1566720; MaxSliceSize: 0
[h264_qsv @ 0x5cd733514380] BitrateLimit: OFF; MBBRC: ON; ExtBRC: OFF
[h264_qsv @ 0x5cd733514380] Trellis: auto
[h264_qsv @ 0x5cd733514380] RepeatPPS: OFF; NumMbPerSlice: 0; LookAheadDS: 2x
[h264_qsv @ 0x5cd733514380] AdaptiveI: OFF; AdaptiveB: OFF; BRefType:pyramid
[h264_qsv @ 0x5cd733514380] MinQPI: 30; MaxQPI: 51; MinQPP: 25; MaxQPP: 51; MinQPB: 28; MaxQPB: 51
[h264_qsv @ 0x5cd733514380] DisableDeblockingIdc: 0 
[h264_qsv @ 0x5cd733514380] SkipFrame: no_skip
[h264_qsv @ 0x5cd733514380] PRefType: default
[h264_qsv @ 0x5cd733514380] TransformSkip: unknown 
[h264_qsv @ 0x5cd733514380] IntRefCycleDist: 0
[h264_qsv @ 0x5cd733514380] LowDelayBRC: OFF
[h264_qsv @ 0x5cd733514380] MaxFrameSizeI: 0; MaxFrameSizeP: 0
[h264_qsv @ 0x5cd733514380] ScenarioInfo: 0
Output #0, matroska, to 'videos/dist/h264_qsv_min_qp_2/1c21a0b93665.mkv':
  Metadata:
    encoder         : Lavf61.7.100
  Stream #0:0: Video: h264 (H264 / 0x34363248), qsv(tv, bt709/unknown/unknown, progressive), 1920x1080 [SAR 1:1 DAR 16:9], q=2-31, 29.97 fps, 1k tbn
      Metadata:
        DURATION        : 00:02:00.020000000
        encoder         : Lavc61.19.100 h264_qsv
      Side data:
        cpb: bitrate max/min/avg: 0/0/0 buffer size: 0 vbv_delay: N/A
[out#0/matroska @ 0x5cd73351ac80] Starting thread...
[in#0/matroska,webm @ 0x5cd733509300] EOF while reading input
[in#0/matroska,webm @ 0x5cd733509300] Terminating thread with return code 0 (success)
[vist#0:0/mpeg2video @ 0x5cd73351a8c0] [dec:mpeg2_qsv @ 0x5cd733518040] Decoder thread received EOF packet
[vist#0:0/mpeg2video @ 0x5cd73351a8c0] [dec:mpeg2_qsv @ 0x5cd733518040] Decoder returned EOF, finishing
[vist#0:0/mpeg2video @ 0x5cd73351a8c0] [dec:mpeg2_qsv @ 0x5cd733518040] Terminating thread with return code 0 (success)
[vf#0:0 @ 0x5cd733516680] Filtergraph returned EOF, finishing
[vf#0:0 @ 0x5cd733516680] All consumers returned EOF
[vf#0:0 @ 0x5cd733516680] Terminating thread with return code 0 (success)
[vost#0:0/h264_qsv @ 0x5cd733515640] Encoder thread received EOF
[vost#0:0/h264_qsv @ 0x5cd733515640] Terminating thread with return code 0 (success)
[out#0/matroska @ 0x5cd73351ac80] All streams finished
[out#0/matroska @ 0x5cd73351ac80] Terminating thread with return code 0 (success)
[AVIOContext @ 0x5cd733514f00] Statistics: 92808623 bytes written, 2 seeks, 356 writeouts
[out#0/matroska @ 0x5cd73351ac80] Output file #0 (videos/dist/h264_qsv_min_qp_2/1c21a0b93665.mkv):
[out#0/matroska @ 0x5cd73351ac80]   Output stream #0:0 (video): 3597 frames encoded; 3597 packets muxed (92776282 bytes); 
[out#0/matroska @ 0x5cd73351ac80]   Total: 3597 packets (92776282 bytes) muxed
[out#0/matroska @ 0x5cd73351ac80] video:90602KiB audio:0KiB subtitle:0KiB other streams:0KiB global headers:0KiB muxing overhead: 0.034256%
frame= 3597 fps=286 q=33.0 Lsize=   90633KiB time=00:01:59.81 bitrate=6196.5kbits/s speed=9.52x    
[AVIOContext @ 0x5cd733509100] Statistics: 5347 bytes written, 0 seeks, 26 writeouts
[in#0/matroska,webm @ 0x5cd733509300] Input file #0 (videos/dist/h264_qsv_min_qp_2/base.mkv):
[in#0/matroska,webm @ 0x5cd733509300]   Input stream #0:0 (video): 3597 packets read (262560438 bytes); 3597 frames decoded; 0 decode errors; 
[in#0/matroska,webm @ 0x5cd733509300]   Total: 3597 packets (262560438 bytes) demuxed
[AVIOContext @ 0x5cd73351ae00] Statistics: 262601028 bytes read, 0 seeks
